# xmcd
# Track frame offsets:
# 150
# 15971
# 40664
# 58274
# 71910
# 82632
# 93026
# 103972
# 115129
# 125323
# 140921
# 156459
# 168644
# 179433
# 191426
# 201683
# 212245
#
# Disc length: 2965 seconds
# Revision: 0
# Processed by: cddbd v1.5.2PL0 Copyright (c) Steve Scherf et al.
# Submitted via: VisiTrax 2.11.3.279 - For more info visit www.synapsa.com
#
DISCID=f80b9311
DTITLE=Willie Nelsons - Willie Nelson and Friends
DYEAR=2015
DGENRE=
TTITLE0=Crazy
TTITLE1=Funny How Time Slips Away
TTITLE2=Night Life
TTITLE3=Rainy Day Blues
TTITLE4=Hello Walls
TTITLE5=The Part Where I Cry
TTITLE6=At The Bottom
TTITLE7=You Took My Happy Away
TTITLE8=There´ll Be No Teardrops Tonight
TTITLE9=Fire To Fire ( with Tanya Tucker)
TTITLE10=Still Wather Run The Deepest ( with Asleep At The Wheel)
TTITLE11=Willingly ( Shirely Collie)
TTITLE12=Together (with Shirley Collie)
TTITLE13=Our Chain Of Love ( with Shirely Collie)
TTITLE14=Columbus Stockade Blues (with Shirley Collie)
TTITLE15=This My Destiny, Is (with Shirley Collie )
TTITLE16=You Dream About Me (with Shiley Collie )
EXTD=
EXTT0=
EXTT1=
EXTT2=
EXTT3=
EXTT4=
EXTT5=
EXTT6=
EXTT7=
EXTT8=
EXTT9=
EXTT10=
EXTT11=
EXTT12=
EXTT13=
EXTT14=
EXTT15=
EXTT16=
PLAYORDER=
